<?xml version="1.0" encoding="UTF-8"?>
<svg xmlns="http://www.w3.org/2000/svg" xmlns:xlink="http://www.w3.org/1999/xlink" width="104pt" height="104pt" viewBox="0 0 104 104" version="1.1">
<g id="surface9244518">
<path style=" stroke:none;fill-rule:nonzero;fill:rgb(100%,100%,100%);fill-opacity:1;" d="M 88.375 16 C 96.984375 16 104 23.015625 104 31.625 L 104 58.890625 C 101.710938 56.292969 99.007812 54.066406 96 52.316406 L 96 31.625 C 96 27.4375 92.5625 24 88.375 24 L 15.625 24 C 11.4375 24 8 27.4375 8 31.625 L 8 72.375 C 8 76.5625 11.4375 80 15.625 80 L 48 80 C 48 82.757812 48.355469 85.441406 49.019531 88 L 15.625 88 C 7.015625 88 0 80.984375 0 72.375 L 0 31.625 C 0 23.015625 7.015625 16 15.625 16 Z M 52 35.125 C 56.171875 31.1875 61.8125 28.75 68 28.75 C 80.175781 28.75 90.164062 38.105469 91.167969 50.023438 C 88.828125 49.144531 86.363281 48.53125 83.804688 48.226562 C 82.09375 41.085938 75.640625 35.75 68 35.75 C 63.46875 35.75 59.328125 37.609375 56.375 40.625 C 58.25 43.96875 59.25 47.890625 59.25 52 C 59.25 53.347656 59.144531 54.671875 58.933594 55.964844 C 54.402344 59.941406 50.996094 65.171875 49.265625 71.097656 C 45.503906 73.71875 40.933594 75.25 36 75.25 C 23.15625 75.25 12.75 64.84375 12.75 52 C 12.75 39.15625 23.15625 28.75 36 28.75 C 42.203125 28.75 47.828125 31.171875 52 35.125 Z M 52 35.125 "/>
<path style=" stroke:none;fill-rule:nonzero;fill:rgb(80%,80%,80%);fill-opacity:1;" d="M 80 56 C 66.800781 56 56 66.800781 56 80 C 56 93.199219 66.800781 104 80 104 C 93.199219 104 104 93.199219 104 80 C 104 66.800781 93.199219 56 80 56 Z M 92 84 L 84 84 L 84 92 L 76 92 L 76 84 L 68 84 L 68 76 L 76 76 L 76 68 L 84 68 L 84 76 L 92 76 Z M 92 84 "/>
</g>
</svg>
