<?xml version="1.0" encoding="UTF-8"?>
<svg xmlns="http://www.w3.org/2000/svg" xmlns:xlink="http://www.w3.org/1999/xlink" width="100pt" height="100pt" viewBox="0 0 100 100" version="1.1">
<g id="surface9244069">
<path style=" stroke:none;fill-rule:nonzero;fill:rgb(100%,100%,100%);fill-opacity:1;" d="M 10 14 C 4.5 14 0 18.5 0 24 L 0 76 C 0 81.5 4.5 86 10 86 L 90 86 C 95.5 86 100 81.5 100 76 L 100 24 C 100 18.5 95.5 14 90 14 Z M 10 18 L 90 18 C 93.335938 18 96 20.664062 96 24 L 96 76 C 96 79.335938 93.335938 82 90 82 L 10 82 C 6.664062 82 4 79.335938 4 76 L 4 24 C 4 20.664062 6.664062 18 10 18 Z M 59.375 38.8125 C 53.171875 38.8125 50 41.867188 50 45.75 C 50 52.773438 58.125 51.828125 58.125 55.4375 C 58.125 56.046875 57.65625 57.5 54.25 57.5 C 50.835938 57.5 48.625 56.1875 48.625 56.1875 L 47.5625 60.9375 C 47.5625 60.9375 49.773438 62.1875 54 62.1875 C 58.226562 62.1875 64.0625 58.953125 64.0625 54.25 C 64.0625 48.59375 55.9375 48.148438 55.9375 45.625 C 55.9375 44.335938 56.9375 43.375 59.875 43.375 C 61.78125 43.375 63.9375 44.8125 63.9375 44.8125 L 64.9375 39.9375 C 64.9375 39.9375 62.101562 38.8125 59.375 38.8125 Z M 32.9375 39.25 L 27.5625 55.125 C 27.5625 55.125 27.195312 53.773438 27.0625 52.9375 C 23.992188 46.046875 19 43.5 19 43.5 L 23.75 61.5 L 30.25 61.5 L 39.25 39.25 Z M 41.5625 39.25 L 38.0625 61.5 L 44 61.5 L 47.5625 39.25 Z M 73.625 39.25 L 63.9375 61.5 L 69.8125 61.5 L 71 58.3125 L 78.375 58.3125 L 79 61.5 L 84.375 61.5 L 79.8125 39.25 Z M 12.5 39.3125 C 12.5 39.3125 24.109375 42.90625 26.8125 51.625 L 24.8125 41.5 C 24.8125 41.5 23.953125 39.3125 21.625 39.3125 Z M 75.875 45.6875 L 77.5 54.0625 L 72.625 54.0625 Z M 75.875 45.6875 "/>
</g>
</svg>
